<svg version="1.1" xmlns="http://www.w3.org/2000/svg" x="0px" y="0px"
   width="100%" viewBox="0 0 256 256" xml:space="preserve">
<path fill="#ffffff" opacity="1.000000" stroke="none"
  d="
M1.000000,256.000000
  C1.000000,171.072952 1.000000,86.145912 1.000000,1.000000
  C85.687439,1.000000 170.375061,1.000000 255.532089,1.468657
  C256.001648,82.798485 256.000549,163.659653 256.008850,244.520828
  C256.009064,246.680786 256.111389,248.840729 256.104187,251.435760
  C256.800781,256.321075 253.888626,256.028931 250.904541,256.027771
  C167.603043,255.994934 84.301521,256.000641 1.000000,256.000000
M111.758675,129.152435
  C131.917099,129.148209 152.076706,129.242172 172.232330,129.002441
  C174.485947,128.975632 177.870667,127.574104 178.637772,125.868652
  C179.422363,124.124344 178.326324,120.620384 176.857742,118.918671
  C163.254684,103.156372 149.414093,87.598564 135.593216,72.025093
  C131.520676,67.436111 128.026703,67.349510 123.803574,71.662422
  C118.325775,77.256676 112.931808,82.933052 107.504807,88.577011
  C98.613693,97.823563 89.735878,107.082947 80.827560,116.312889
  C78.658188,118.560600 76.877190,121.166557 80.382645,123.191246
  C81.580017,123.882835 84.812721,122.623322 86.132095,121.285469
  C98.179741,109.069099 109.988281,96.617317 121.922211,84.288063
  C124.417427,81.710197 127.141632,79.353989 129.925217,76.740829
  C142.982117,91.526489 156.018112,106.288467 169.770447,121.861618
  C166.963242,121.861618 165.350403,121.861351 163.737564,121.861664
  C144.412186,121.865425 125.086815,121.868103 105.761436,121.873611
  C96.898979,121.876137 95.508659,123.163696 95.383774,131.836792
  C95.170296,146.662155 94.997696,161.488235 94.863167,176.314514
  C94.780083,185.471191 98.653572,189.351700 107.897560,189.348755
  C122.557999,189.344055 137.218536,189.283600 151.878799,189.203903
  C160.555695,189.156723 164.637680,185.006927 164.568314,176.233475
  C164.478745,164.905899 164.255783,153.579407 164.160507,142.251846
  C164.137009,139.458084 164.175888,136.328110 160.568359,136.307175
  C156.545456,136.283798 156.823502,139.680252 156.850983,142.574707
  C156.953735,153.403030 157.043945,164.231552 157.101028,175.060196
  C157.131744,180.888870 156.194656,181.896927 150.595871,181.921982
  C136.601822,181.984589 122.606201,181.891144 108.614128,182.077972
  C103.900169,182.140900 101.962509,180.311737 102.092499,175.581329
  C102.444839,162.759399 102.594551,149.931793 102.804733,137.106110
  C102.927834,129.593796 103.272751,129.234833 111.758675,129.152435
z"/>
<path fill="rgba(255,255,255,0.4)" opacity="1.000000" stroke="none"
  d="
M1.000000,256.500000
  C84.301521,256.000641 167.603043,255.994934 250.904541,256.027771
  C253.888626,256.028931 256.800781,256.321075 256.312592,251.435516
  C256.582916,251.000168 257.000000,251.000000 257.000000,251.000000
  C257.000000,253.000000 257.000000,255.000000 257.000000,257.000000
  C171.666672,257.000000 86.333336,257.000000 1.000000,256.500000
z"/>
<path fill="rgba(255,255,255,0.4)" opacity="1.000000" stroke="none"
  d="
M257.000000,250.531342
  C257.000000,251.000000 256.582916,251.000168 256.374512,251.000427
  C256.111389,248.840729 256.009064,246.680786 256.008850,244.520828
  C256.000549,163.659653 256.001648,82.798485 256.000732,1.468657
  C256.333344,2.496800 256.957458,3.993432 256.958344,5.490423
  C257.005310,87.014496 257.000000,168.538589 257.000000,250.531342
z"/>
<path fill="transparent" opacity="1.000000" stroke="none"
  d="
M111.293213,129.156708
  C103.272751,129.234833 102.927834,129.593796 102.804733,137.106110
  C102.594551,149.931793 102.444839,162.759399 102.092499,175.581329
  C101.962509,180.311737 103.900169,182.140900 108.614128,182.077972
  C122.606201,181.891144 136.601822,181.984589 150.595871,181.921982
  C156.194656,181.896927 157.131744,180.888870 157.101028,175.060196
  C157.043945,164.231552 156.953735,153.403030 156.850983,142.574707
  C156.823502,139.680252 156.545456,136.283798 160.568359,136.307175
  C164.175888,136.328110 164.137009,139.458084 164.160507,142.251846
  C164.255783,153.579407 164.478745,164.905899 164.568314,176.233475
  C164.637680,185.006927 160.555695,189.156723 151.878799,189.203903
  C137.218536,189.283600 122.557999,189.344055 107.897560,189.348755
  C98.653572,189.351700 94.780083,185.471191 94.863167,176.314514
  C94.997696,161.488235 95.170296,146.662155 95.383774,131.836792
  C95.508659,123.163696 96.898979,121.876137 105.761436,121.873611
  C125.086815,121.868103 144.412186,121.865425 163.737564,121.861664
  C165.350403,121.861351 166.963242,121.861618 169.770447,121.861618
  C156.018112,106.288467 142.982117,91.526489 129.925217,76.740829
  C127.141632,79.353989 124.417427,81.710197 121.922211,84.288063
  C109.988281,96.617317 98.179741,109.069099 86.132095,121.285469
  C84.812721,122.623322 81.580017,123.882835 80.382645,123.191246
  C76.877190,121.166557 78.658188,118.560600 80.827560,116.312889
  C89.735878,107.082947 98.613693,97.823563 107.504807,88.577011
  C112.931808,82.933052 118.325775,77.256676 123.803574,71.662422
  C128.026703,67.349510 131.520676,67.436111 135.593216,72.025093
  C149.414093,87.598564 163.254684,103.156372 176.857742,118.918671
  C178.326324,120.620384 179.422363,124.124344 178.637772,125.868652
  C177.870667,127.574104 174.485947,128.975632 172.232330,129.002441
  C152.076706,129.242172 131.917099,129.148209 111.293213,129.156708
z"/>
</svg>
