<svg xmlns="http://www.w3.org/2000/svg" viewBox="0 0 48 48" fill="none">
  <circle cx="24" cy="24" r="22" fill="#000" opacity="0.05"/>
  <path d="M24 4C12.954 4 4 12.954 4 24c0 8.837 5.725 16.33 13.672 18.978.999.184 1.364-.434 1.364-.964 0-.475-.017-1.734-.027-3.406-5.562 1.208-6.733-2.68-6.733-2.68-.909-2.31-2.219-2.925-2.219-2.925-1.814-1.24.137-1.215.137-1.215 2.006.141 3.061 2.06 3.061 2.06 1.783 3.055 4.678 2.172 5.815 1.661.182-1.292.698-2.173 1.269-2.673-4.44-.505-9.107-2.22-9.107-9.884 0-2.183.78-3.968 2.058-5.367-.206-.504-.892-2.539.196-5.293 0 0 1.678-.538 5.497 2.05A19.15 19.15 0 0124 13.24c1.7.008 3.413.229 5.012.672 3.816-2.588 5.491-2.05 5.491-2.05 1.091 2.754.405 4.789.199 5.293 1.281 1.399 2.056 3.184 2.056 5.367 0 7.682-4.674 9.374-9.127 9.868.718.618 1.357 1.838 1.357 3.705 0 2.674-.024 4.833-.024 5.489 0 .534.36 1.156 1.374.96C38.281 40.324 44 32.834 44 24 44 12.954 35.046 4 24 4z" fill="#24292f"/>
</svg>
